<svg xmlns="http://www.w3.org/2000/svg" xmlns:xlink="http://www.w3.org/1999/xlink" width="145" height="50" viewBox="0 0 145 50">
  <defs>
    <clipPath id="clip-path">
      <rect id="Rectangle_1" data-name="Rectangle 1" width="145" height="50"/>
    </clipPath>
  </defs>
  <g id="logo-small" clip-path="url(#clip-path)">
    <g id="Group_217" data-name="Group 217" transform="translate(55.462 13.438)">
      <g id="Group_199" data-name="Group 199">
        <path id="Path_146" data-name="Path 146" d="M7.491-4.2A3.165,3.165,0,0,0,6.446-5.58c-.257-.213-.611-.512-.9-.768h0L3.551-8.041c-.5-.427-.515-.754-.45-.953a1.075,1.075,0,0,1,.868-.612,1.7,1.7,0,0,1,1.576.6l1.464-1.039a4.027,4.027,0,0,0-1.624-1.067,3.569,3.569,0,0,0-1.769-.114,3.3,3.3,0,0,0-1.431.6A2.407,2.407,0,0,0,1.3-9.449a2.012,2.012,0,0,0,.032,1.337,2.993,2.993,0,0,0,.917,1.266L3.711-5.622c.064.057.933.811,1.464,1.252.338.285.708.711.547,1.2a1.552,1.552,0,0,1-1.254.882,2.057,2.057,0,0,1-1.094-.085A2.637,2.637,0,0,1,2.2-3.2L.72-2.179A4.7,4.7,0,0,0,2.7-.827,4.321,4.321,0,0,0,4.114-.6a4.137,4.137,0,0,0,.724-.057A3.353,3.353,0,0,0,7.523-2.72,2.225,2.225,0,0,0,7.491-4.2ZM16.675-.6h2.043l-5.18-11.04L8.343-.6H10.4l1.013-2.262h4.246ZM12.091-4.341l1.447-3.215,1.447,3.215ZM31.6-.6V-11.64l-5.613,7.4-5.613-7.4V-.6H22.24V-6.2l3.747,4.923L29.718-6.2V-.6ZM69.894-11.156H68.028v4.51h-4.76v-4.51H61.4V-.6h1.866V-5.152h4.761V-.6h1.866ZM79.866-.6h2.043l-5.18-11.04L71.535-.6h2.059l1.013-2.262h4.246ZM75.282-4.341,76.73-7.556l1.447,3.215Z" transform="translate(-0.72 11.971)" fill="#1b364d" stroke="#1b364d" stroke-width="0.3"/>
        <path id="Path_147" data-name="Path 147" d="M37.452.481A6.216,6.216,0,0,0,39.784.025a6.3,6.3,0,0,0,1.9-1.258,5.737,5.737,0,0,0,1.271-1.856,5.714,5.714,0,0,0,.466-2.265,5.847,5.847,0,0,0-.466-2.281A6.1,6.1,0,0,0,41.682-9.49a6.251,6.251,0,0,0-1.9-1.242,6.216,6.216,0,0,0-2.332-.456,6.073,6.073,0,0,0-2.316.456,5.883,5.883,0,0,0-1.9,1.242,6.147,6.147,0,0,0-1.287,1.856,5.847,5.847,0,0,0-.466,2.281,5.714,5.714,0,0,0,.466,2.265,5.782,5.782,0,0,0,1.287,1.856,5.926,5.926,0,0,0,1.9,1.258,6.073,6.073,0,0,0,2.318.455Zm0-9.846a4.124,4.124,0,0,1,2.9,1.18,3.943,3.943,0,0,1,1.206,2.831,3.943,3.943,0,0,1-1.206,2.831,4.124,4.124,0,0,1-2.895,1.18,4.124,4.124,0,0,1-2.9-1.18,3.943,3.943,0,0,1-1.206-2.831,3.943,3.943,0,0,1,1.206-2.831,4.124,4.124,0,0,1,2.9-1.179ZM51.107.481A6.216,6.216,0,0,0,53.439.025a6.3,6.3,0,0,0,1.9-1.258A5.737,5.737,0,0,0,56.61-3.089a5.714,5.714,0,0,0,.466-2.265,5.848,5.848,0,0,0-.466-2.281A6.1,6.1,0,0,0,55.336-9.49a6.251,6.251,0,0,0-1.9-1.242,6.216,6.216,0,0,0-2.332-.456,6.073,6.073,0,0,0-2.316.456,5.883,5.883,0,0,0-1.9,1.242A6.147,6.147,0,0,0,45.6-7.634a5.848,5.848,0,0,0-.466,2.281A5.714,5.714,0,0,0,45.6-3.088a5.783,5.783,0,0,0,1.287,1.856,5.926,5.926,0,0,0,1.9,1.258,6.073,6.073,0,0,0,2.319.455Zm0-9.846A4.124,4.124,0,0,1,54-8.185a3.943,3.943,0,0,1,1.206,2.831A3.943,3.943,0,0,1,54-2.523a4.124,4.124,0,0,1-2.9,1.18,4.124,4.124,0,0,1-2.9-1.18A3.943,3.943,0,0,1,47-5.354,3.943,3.943,0,0,1,48.21-8.185a4.124,4.124,0,0,1,2.9-1.179Z" transform="translate(1.502 11.189)" fill="#1b364d" stroke="#1b364d" stroke-width="0.3"/>
      </g>
    </g>
    <text id="Projects" transform="translate(66.066 38.905)" fill="#596c7d" stroke="#596c7d" stroke-width="0.2" font-size="9" font-family="Roboto-Light, Roboto" font-weight="300" letter-spacing="0.19em"><tspan x="0" y="0">PROJECTS</tspan></text>
    <g id="Group_218" data-name="Group 218" transform="translate(-18.58 5.705)">
      <g id="Group_198" data-name="Group 198" transform="translate(22.754 -0.53)">
        <path id="Rectangle_163" data-name="Rectangle 163" d="M0,0H25a2,2,0,0,1,2,2V12a2,2,0,0,1-2,2H0Z" transform="translate(14.826 -1.174)" fill="red" opacity="0.75"/>
        <path id="Rectangle_166" data-name="Rectangle 166" d="M2,0H27V14H2a2,2,0,0,1-2-2V2A2,2,0,0,1,2,0Z" transform="translate(-1.174 27.826)" fill="red" opacity="0.75"/>
        <path id="Rectangle_164" data-name="Rectangle 164" d="M0,0H12a2,2,0,0,1,2,2V25a2,2,0,0,1-2,2H0Z" transform="translate(27.826 14.826)" fill="#4d505e"/>
        <path id="Rectangle_165" data-name="Rectangle 165" d="M2,0H14V27H2a2,2,0,0,1-2-2V2A2,2,0,0,1,2,0Z" transform="translate(-1.174 -1.174)" fill="#4d505e"/>
        <rect id="Rectangle_167" data-name="Rectangle 167" width="11" height="11" transform="translate(14.826 14.826)" fill="red" opacity="0.45"/>
      </g>
    </g>
  </g>
</svg>
