<?xml version="1.0" encoding="utf-8"?>
<!-- Generator: Adobe Illustrator 25.4.1, SVG Export Plug-In . SVG Version: 6.00 Build 0)  -->
<svg version="1.1" id="Layer_1" xmlns="http://www.w3.org/2000/svg" xmlns:xlink="http://www.w3.org/1999/xlink" x="0px" y="0px"
	 viewBox="0 0 145 50" style="enable-background:new 0 0 145 50;" xml:space="preserve">
<style type="text/css">
	.st0{clip-path:url(#SVGID_00000035512514469096217200000011389066793816614065_);}
	.st1{fill:#1B364D;stroke:#1B364D;stroke-width:0.3;}
	.st2{fill:#596C7D;}
	.st3{font-family:'Roboto-Light';}
	.st4{font-size:9px;}
	.st5{letter-spacing:1;}
	.st6{fill:none;stroke:#596C7D;stroke-width:0.2;}
	.st7{opacity:0.75;fill:#FF0000;enable-background:new    ;}
	.st8{fill:#4D505E;}
	.st9{opacity:0.45;fill:#FF0000;enable-background:new    ;}
	.st10{fill:#1B364D;}
</style>
<g>
	<defs>
		<rect id="SVGID_1_" y="0" width="145" height="50"/>
	</defs>
	<clipPath id="SVGID_00000026883448307219816970000014882522129729534633_">
		<use xlink:href="#SVGID_1_"  style="overflow:visible;"/>
	</clipPath>
	<g id="logo-small" style="clip-path:url(#SVGID_00000026883448307219816970000014882522129729534633_);">
		<g id="Group_217" transform="translate(55.462 13.438)">
			<g id="Group_199">
				<path id="Path_146" class="st1" d="M6.8,7.8c-0.2-0.5-0.6-1-1-1.4C5.5,6.2,5.1,5.9,4.8,5.6l0,0l-2-1.7C2.3,3.5,2.3,3.2,2.4,3
					c0.2-0.3,0.5-0.6,0.9-0.6C3.8,2.3,4.4,2.5,4.8,3l1.5-1c-0.4-0.5-1-0.8-1.6-1.1C4.1,0.7,3.5,0.6,2.9,0.7C2.4,0.8,1.9,1,1.5,1.3
					C1.1,1.6,0.7,2,0.6,2.5C0.4,3,0.4,3.4,0.6,3.9c0.2,0.5,0.5,0.9,0.9,1.3L3,6.3c0.1,0.1,0.9,0.8,1.5,1.3C4.8,7.9,5.2,8.3,5,8.8
					C4.8,9.3,4.3,9.6,3.7,9.7C3.4,9.8,3,9.7,2.7,9.6C2.2,9.4,1.8,9.1,1.5,8.8L0,9.8c0.5,0.6,1.2,1.1,2,1.4c0.5,0.2,0.9,0.2,1.4,0.2
					c0.2,0,0.5,0,0.7-0.1c1.2-0.2,2.2-0.9,2.7-2.1C7,8.8,7,8.2,6.8,7.8z M16,11.4h2l-5.2-11l-5.2,11h2.1l1-2.3h4.2L16,11.4z
					 M11.4,7.6l1.4-3.2l1.4,3.2L11.4,7.6z M30.9,11.4v-11l-5.6,7.4l-5.6-7.4v11h1.9V5.8l3.7,4.9L29,5.8v5.6H30.9z M69.2,0.8h-1.9
					v4.5h-4.8V0.8h-1.9v10.6h1.9V6.8h4.8v4.6h1.9L69.2,0.8z M79.1,11.4h2L76,0.3l-5.2,11h2.1l1-2.3h4.2L79.1,11.4z M74.6,7.6L76,4.4
					l1.4,3.2L74.6,7.6z"/>
				<path id="Path_147" class="st1" d="M39,11.7c0.8,0,1.6-0.2,2.3-0.5c0.7-0.3,1.3-0.7,1.9-1.3c0.5-0.5,1-1.2,1.3-1.9
					c0.3-0.7,0.5-1.5,0.5-2.3c0-0.8-0.2-1.6-0.5-2.3c-0.3-0.7-0.7-1.3-1.3-1.9c-0.6-0.5-1.2-0.9-1.9-1.2C40.5,0.2,39.8,0,39,0
					c-0.8,0-1.6,0.2-2.3,0.5c-0.7,0.3-1.4,0.7-1.9,1.2c-0.5,0.5-1,1.2-1.3,1.9C33.1,4.3,33,5.1,33,5.8c0,0.8,0.2,1.5,0.5,2.3
					c0.3,0.7,0.7,1.3,1.3,1.9c0.5,0.5,1.2,1,1.9,1.3C37.4,11.5,38.2,11.7,39,11.7z M39,1.8c1.1,0,2.1,0.4,2.9,1.2
					c0.8,0.7,1.2,1.8,1.2,2.8c0,1.1-0.4,2.1-1.2,2.8C41.1,9.4,40,9.8,39,9.8c-1.1,0-2.1-0.4-2.9-1.2c-0.8-0.7-1.2-1.8-1.2-2.8
					c0-1.1,0.4-2.1,1.2-2.8C36.8,2.2,37.9,1.8,39,1.8L39,1.8z M52.6,11.7c0.8,0,1.6-0.2,2.3-0.5c0.7-0.3,1.3-0.7,1.9-1.3
					c0.5-0.5,1-1.2,1.3-1.9c0.3-0.7,0.5-1.5,0.5-2.3c0-0.8-0.2-1.6-0.5-2.3c-0.3-0.7-0.7-1.3-1.3-1.9c-0.6-0.5-1.2-0.9-1.9-1.2
					C54.2,0.2,53.4,0,52.6,0c-0.8,0-1.6,0.2-2.3,0.5c-0.7,0.3-1.4,0.7-1.9,1.2c-0.5,0.5-1,1.2-1.3,1.9c-0.3,0.7-0.5,1.5-0.5,2.3
					c0,0.8,0.2,1.5,0.5,2.3c0.3,0.7,0.7,1.3,1.3,1.9c0.5,0.5,1.2,1,1.9,1.3C51,11.5,51.8,11.7,52.6,11.7L52.6,11.7z M52.6,1.8
					c1.1,0,2.1,0.4,2.9,1.2c0.8,0.7,1.2,1.8,1.2,2.8c0,1.1-0.4,2.1-1.2,2.8c-0.8,0.8-1.8,1.2-2.9,1.2c-1.1,0-2.1-0.4-2.9-1.2
					c-0.8-0.7-1.2-1.8-1.2-2.8c0-1.1,0.4-2.1,1.2-2.8C50.5,2.2,51.5,1.8,52.6,1.8L52.6,1.8z"/>
			</g>
		</g>
		<text transform="matrix(1 0 0 1 66.066 38.905)" class="st2 st3 st4 st5">PROJECTS</text>
		<text transform="matrix(1 0 0 1 66.066 38.905)" class="st6 st3 st4 st5">PROJECTS</text>
		<g id="Group_218" transform="translate(-18.58 5.705)">
			<g id="Group_198" transform="translate(22.754 -0.53)">
				<path id="Rectangle_163" class="st7" d="M14.8-1.2h25c1.1,0,2,0.9,2,2v10c0,1.1-0.9,2-2,2h-25V-1.2z"/>
				<path id="Rectangle_166" class="st7" d="M0.8,27.8h25v14h-25c-1.1,0-2-0.9-2-2v-10C-1.2,28.7-0.3,27.8,0.8,27.8z"/>
				<path id="Rectangle_164" class="st8" d="M27.8,14.8h12c1.1,0,2,0.9,2,2v23c0,1.1-0.9,2-2,2h-12V14.8z"/>
				<path id="Rectangle_165" class="st8" d="M0.8-1.2h12v27h-12c-1.1,0-2-0.9-2-2v-23C-1.2-0.3-0.3-1.2,0.8-1.2z"/>
				<rect id="Rectangle_167" x="14.8" y="14.8" class="st9" width="11" height="11"/>
			</g>
		</g>
	</g>
</g>
<path class="st10" d="M138.1,16.6l-0.7-1.3h-0.6v1.3h-0.7V13h1.2c0.8,0,1.3,0.5,1.3,1.2c0,0.4-0.2,0.8-0.6,1l0.9,1.4L138.1,16.6z
	 M136.7,14.7h0.5c0.4,0,0.6-0.2,0.6-0.5c0-0.4-0.2-0.5-0.6-0.5h-0.5V14.7z"/>
<path class="st10" d="M137.2,17.7c-1.6,0-2.9-1.3-2.9-2.9c0-1.6,1.3-2.9,2.9-2.9c1.6,0,2.9,1.3,2.9,2.9c0,0,0,0,0,0
	C140.1,16.4,138.8,17.7,137.2,17.7z M137.2,12.1c-1.5,0-2.7,1.2-2.7,2.7c0,1.5,1.2,2.7,2.7,2.7c1.5,0,2.7-1.2,2.7-2.7c0,0,0,0,0,0
	C140,13.3,138.7,12.1,137.2,12.1z"/>
</svg>
